<svg width="281" height="57" viewBox="0 0 281 57" fill="none" xmlns="http://www.w3.org/2000/svg">
<path d="M21.1592 1H259.841C270.974 1 280 10.0256 280 21.1592C280 32.2927 270.974 41.3184 259.841 41.3184H153.583C151.576 41.3184 149.665 42.1801 148.336 43.6846L140.659 52.376C140.049 53.0663 138.909 52.635 138.909 51.7139V48.3184C138.909 44.4524 135.775 41.3184 131.909 41.3184H21.1592C10.0256 41.3184 1.00004 32.2927 1 21.1592C1 10.0256 10.0256 1 21.1592 1Z" stroke="white" stroke-width="2"/>
<path d="M44.015 27.18C43.285 27.18 42.635 27.015 42.065 26.685C41.495 26.345 41.045 25.88 40.715 25.29C40.395 24.7 40.235 24.015 40.235 23.235C40.235 22.445 40.395 21.755 40.715 21.165C41.045 20.565 41.495 20.1 42.065 19.77C42.635 19.43 43.285 19.26 44.015 19.26C44.935 19.26 45.705 19.5 46.325 19.98C46.945 20.46 47.34 21.11 47.51 21.93H45.95C45.85 21.49 45.62 21.15 45.26 20.91C44.91 20.67 44.49 20.55 44 20.55C43.6 20.55 43.23 20.655 42.89 20.865C42.55 21.065 42.275 21.365 42.065 21.765C41.865 22.155 41.765 22.64 41.765 23.22C41.765 23.65 41.825 24.035 41.945 24.375C42.065 24.705 42.225 24.985 42.425 25.215C42.635 25.445 42.875 25.62 43.145 25.74C43.415 25.85 43.7 25.905 44 25.905C44.33 25.905 44.625 25.855 44.885 25.755C45.155 25.645 45.38 25.485 45.56 25.275C45.75 25.065 45.88 24.815 45.95 24.525H47.51C47.34 25.325 46.945 25.97 46.325 26.46C45.705 26.94 44.935 27.18 44.015 27.18ZM52.7151 27.18C52.0051 27.18 51.3651 27.015 50.7951 26.685C50.2351 26.355 49.7901 25.895 49.4601 25.305C49.1401 24.705 48.9801 24.015 48.9801 23.235C48.9801 22.435 49.1451 21.74 49.4751 21.15C49.8051 20.55 50.2551 20.085 50.8251 19.755C51.3951 19.425 52.0351 19.26 52.7451 19.26C53.4651 19.26 54.1051 19.425 54.6651 19.755C55.2251 20.085 55.6651 20.545 55.9851 21.135C56.3151 21.725 56.4801 22.42 56.4801 23.22C56.4801 24.02 56.3151 24.715 55.9851 25.305C55.6651 25.895 55.2201 26.355 54.6501 26.685C54.0801 27.015 53.4351 27.18 52.7151 27.18ZM52.7151 25.89C53.1251 25.89 53.4951 25.79 53.8251 25.59C54.1651 25.39 54.4351 25.095 54.6351 24.705C54.8451 24.305 54.9501 23.81 54.9501 23.22C54.9501 22.63 54.8501 22.14 54.6501 21.75C54.4501 21.35 54.1801 21.05 53.8401 20.85C53.5101 20.65 53.1451 20.55 52.7451 20.55C52.3451 20.55 51.9751 20.65 51.6351 20.85C51.2951 21.05 51.0201 21.35 50.8101 21.75C50.6101 22.14 50.5101 22.63 50.5101 23.22C50.5101 23.81 50.6101 24.305 50.8101 24.705C51.0201 25.095 51.2901 25.39 51.6201 25.59C51.9601 25.79 52.3251 25.89 52.7151 25.89ZM58.2446 27V19.44H59.5946L59.6846 20.73C59.9246 20.28 60.2646 19.925 60.7046 19.665C61.1446 19.395 61.6496 19.26 62.2196 19.26C62.8196 19.26 63.3346 19.38 63.7646 19.62C64.1946 19.86 64.5296 20.225 64.7696 20.715C65.0096 21.195 65.1296 21.8 65.1296 22.53V27H63.6296V22.68C63.6296 21.98 63.4746 21.45 63.1646 21.09C62.8546 20.73 62.4046 20.55 61.8146 20.55C61.4246 20.55 61.0746 20.645 60.7646 20.835C60.4546 21.015 60.2046 21.285 60.0146 21.645C59.8346 22.005 59.7446 22.445 59.7446 22.965V27H58.2446ZM70.1683 27C69.6883 27 69.2733 26.925 68.9233 26.775C68.5733 26.625 68.3033 26.375 68.1133 26.025C67.9233 25.675 67.8283 25.2 67.8283 24.6V20.715H66.5233V19.44H67.8283L68.0083 17.55H69.3283V19.44H71.4733V20.715H69.3283V24.615C69.3283 25.045 69.4183 25.34 69.5983 25.5C69.7783 25.65 70.0883 25.725 70.5283 25.725H71.3983V27H70.1683ZM75.6324 27.18C75.0124 27.18 74.4974 27.075 74.0874 26.865C73.6774 26.655 73.3724 26.375 73.1724 26.025C72.9724 25.665 72.8724 25.28 72.8724 24.87C72.8724 24.37 73.0024 23.945 73.2624 23.595C73.5224 23.235 73.8924 22.96 74.3724 22.77C74.8524 22.58 75.4274 22.485 76.0974 22.485H78.0624C78.0624 22.045 77.9974 21.68 77.8674 21.39C77.7374 21.1 77.5424 20.885 77.2824 20.745C77.0324 20.595 76.7124 20.52 76.3224 20.52C75.8724 20.52 75.4874 20.63 75.1674 20.85C74.8474 21.06 74.6474 21.375 74.5674 21.795H73.0674C73.1274 21.265 73.3074 20.815 73.6074 20.445C73.9174 20.065 74.3124 19.775 74.7924 19.575C75.2724 19.365 75.7824 19.26 76.3224 19.26C77.0324 19.26 77.6274 19.385 78.1074 19.635C78.5874 19.885 78.9474 20.24 79.1874 20.7C79.4374 21.15 79.5624 21.69 79.5624 22.32V27H78.2574L78.1374 25.725C78.0274 25.925 77.8974 26.115 77.7474 26.295C77.5974 26.475 77.4174 26.63 77.2074 26.76C77.0074 26.89 76.7724 26.99 76.5024 27.06C76.2424 27.14 75.9524 27.18 75.6324 27.18ZM75.9174 25.965C76.2374 25.965 76.5274 25.9 76.7874 25.77C77.0474 25.64 77.2674 25.465 77.4474 25.245C77.6374 25.015 77.7774 24.76 77.8674 24.48C77.9674 24.19 78.0224 23.895 78.0324 23.595V23.55H76.2474C75.8174 23.55 75.4674 23.605 75.1974 23.715C74.9374 23.815 74.7474 23.955 74.6274 24.135C74.5074 24.315 74.4474 24.525 74.4474 24.765C74.4474 25.015 74.5024 25.23 74.6124 25.41C74.7324 25.58 74.9024 25.715 75.1224 25.815C75.3424 25.915 75.6074 25.965 75.9174 25.965ZM84.972 27.18C84.242 27.18 83.592 27.015 83.022 26.685C82.452 26.345 82.002 25.88 81.672 25.29C81.352 24.7 81.192 24.015 81.192 23.235C81.192 22.445 81.352 21.755 81.672 21.165C82.002 20.565 82.452 20.1 83.022 19.77C83.592 19.43 84.242 19.26 84.972 19.26C85.892 19.26 86.662 19.5 87.282 19.98C87.902 20.46 88.297 21.11 88.467 21.93H86.907C86.807 21.49 86.577 21.15 86.217 20.91C85.867 20.67 85.447 20.55 84.957 20.55C84.557 20.55 84.187 20.655 83.847 20.865C83.507 21.065 83.232 21.365 83.022 21.765C82.822 22.155 82.722 22.64 82.722 23.22C82.722 23.65 82.782 24.035 82.902 24.375C83.022 24.705 83.182 24.985 83.382 25.215C83.592 25.445 83.832 25.62 84.102 25.74C84.372 25.85 84.657 25.905 84.957 25.905C85.287 25.905 85.582 25.855 85.842 25.755C86.112 25.645 86.337 25.485 86.517 25.275C86.707 25.065 86.837 24.815 86.907 24.525H88.467C88.297 25.325 87.902 25.97 87.282 26.46C86.662 26.94 85.892 27.18 84.972 27.18ZM93.181 27C92.701 27 92.286 26.925 91.936 26.775C91.586 26.625 91.316 26.375 91.126 26.025C90.936 25.675 90.841 25.2 90.841 24.6V20.715H89.536V19.44H90.841L91.021 17.55H92.341V19.44H94.486V20.715H92.341V24.615C92.341 25.045 92.431 25.34 92.611 25.5C92.791 25.65 93.101 25.725 93.541 25.725H94.411V27H93.181ZM101.645 30.06C100.575 30.06 99.6351 29.85 98.8251 29.43C98.0151 29.01 97.3851 28.41 96.9351 27.63C96.4851 26.86 96.2601 25.945 96.2601 24.885C96.2601 23.815 96.4401 22.825 96.8001 21.915C97.1701 20.995 97.6851 20.195 98.3451 19.515C99.0051 18.825 99.7901 18.29 100.7 17.91C101.62 17.52 102.63 17.325 103.73 17.325C104.85 17.325 105.82 17.54 106.64 17.97C107.47 18.4 108.11 19 108.56 19.77C109.02 20.53 109.25 21.415 109.25 22.425C109.25 23.015 109.18 23.585 109.04 24.135C108.9 24.685 108.69 25.185 108.41 25.635C108.13 26.075 107.785 26.43 107.375 26.7C106.975 26.96 106.515 27.09 105.995 27.09C105.365 27.09 104.905 26.9 104.615 26.52C104.335 26.14 104.235 25.645 104.315 25.035L104.36 24.54L104.63 25.11C104.38 25.72 103.985 26.205 103.445 26.565C102.915 26.915 102.335 27.09 101.705 27.09C100.955 27.09 100.37 26.86 99.9501 26.4C99.5301 25.94 99.3201 25.32 99.3201 24.54C99.3201 23.99 99.4051 23.465 99.5751 22.965C99.7451 22.465 99.9851 22.02 100.295 21.63C100.615 21.23 100.99 20.915 101.42 20.685C101.85 20.455 102.33 20.34 102.86 20.34C103.46 20.34 103.935 20.5 104.285 20.82C104.635 21.13 104.845 21.585 104.915 22.185L104.6 22.38L104.945 20.49H106.19L105.455 24.69C105.385 25.1 105.4 25.435 105.5 25.695C105.61 25.945 105.845 26.07 106.205 26.07C106.515 26.07 106.785 25.96 107.015 25.74C107.245 25.52 107.435 25.235 107.585 24.885C107.745 24.525 107.865 24.135 107.945 23.715C108.025 23.295 108.065 22.885 108.065 22.485C108.065 21.625 107.88 20.89 107.51 20.28C107.15 19.67 106.635 19.2 105.965 18.87C105.295 18.53 104.495 18.36 103.565 18.36C102.665 18.36 101.84 18.525 101.09 18.855C100.35 19.185 99.7051 19.645 99.1551 20.235C98.6151 20.815 98.1951 21.495 97.8951 22.275C97.5951 23.045 97.4451 23.875 97.4451 24.765C97.4451 25.665 97.6201 26.43 97.9701 27.06C98.3301 27.7 98.8401 28.18 99.5001 28.5C100.17 28.83 100.96 28.995 101.87 28.995C102.31 28.995 102.745 28.95 103.175 28.86C103.615 28.78 104.02 28.655 104.39 28.485L104.63 29.49C104.18 29.68 103.7 29.82 103.19 29.91C102.69 30.01 102.175 30.06 101.645 30.06ZM102.155 25.965C102.555 25.965 102.915 25.86 103.235 25.65C103.565 25.43 103.835 25.13 104.045 24.75C104.265 24.36 104.4 23.915 104.45 23.415C104.48 23.055 104.445 22.73 104.345 22.44C104.245 22.14 104.075 21.905 103.835 21.735C103.605 21.555 103.305 21.465 102.935 21.465C102.585 21.465 102.27 21.545 101.99 21.705C101.71 21.865 101.47 22.08 101.27 22.35C101.08 22.62 100.93 22.925 100.82 23.265C100.72 23.605 100.67 23.95 100.67 24.3C100.67 24.8 100.795 25.205 101.045 25.515C101.295 25.815 101.665 25.965 102.155 25.965ZM110.909 27V25.785L114.974 20.7H110.969V19.44H116.684V20.67L112.604 25.755H116.759V27H110.909ZM118.525 27V19.44H120.025V27H118.525ZM119.29 18.015C119 18.015 118.76 17.925 118.57 17.745C118.39 17.565 118.3 17.335 118.3 17.055C118.3 16.785 118.39 16.565 118.57 16.395C118.76 16.215 119 16.125 119.29 16.125C119.57 16.125 119.805 16.215 119.995 16.395C120.185 16.565 120.28 16.785 120.28 17.055C120.28 17.335 120.185 17.565 119.995 17.745C119.805 17.925 119.57 18.015 119.29 18.015ZM124.315 27L121.48 19.44H123.055L125.2 25.56L127.36 19.44H128.905L126.085 27H124.315ZM133.031 27.18C132.441 27.18 131.926 27.06 131.486 26.82C131.056 26.58 130.721 26.22 130.481 25.74C130.251 25.26 130.136 24.655 130.136 23.925V19.44H131.636V23.76C131.636 24.47 131.791 25.005 132.101 25.365C132.411 25.725 132.856 25.905 133.436 25.905C133.826 25.905 134.176 25.81 134.486 25.62C134.806 25.43 135.056 25.155 135.236 24.795C135.416 24.435 135.506 23.995 135.506 23.475V19.44H137.006V27H135.671L135.566 25.71C135.336 26.17 135.001 26.53 134.561 26.79C134.121 27.05 133.611 27.18 133.031 27.18ZM142.555 27.18C141.825 27.18 141.175 27.015 140.605 26.685C140.035 26.345 139.585 25.88 139.255 25.29C138.935 24.7 138.775 24.015 138.775 23.235C138.775 22.445 138.935 21.755 139.255 21.165C139.585 20.565 140.035 20.1 140.605 19.77C141.175 19.43 141.825 19.26 142.555 19.26C143.475 19.26 144.245 19.5 144.865 19.98C145.485 20.46 145.88 21.11 146.05 21.93H144.49C144.39 21.49 144.16 21.15 143.8 20.91C143.45 20.67 143.03 20.55 142.54 20.55C142.14 20.55 141.77 20.655 141.43 20.865C141.09 21.065 140.815 21.365 140.605 21.765C140.405 22.155 140.305 22.64 140.305 23.22C140.305 23.65 140.365 24.035 140.485 24.375C140.605 24.705 140.765 24.985 140.965 25.215C141.175 25.445 141.415 25.62 141.685 25.74C141.955 25.85 142.24 25.905 142.54 25.905C142.87 25.905 143.165 25.855 143.425 25.755C143.695 25.645 143.92 25.485 144.1 25.275C144.29 25.065 144.42 24.815 144.49 24.525H146.05C145.88 25.325 145.485 25.97 144.865 26.46C144.245 26.94 143.475 27.18 142.555 27.18ZM147.805 27V19.44H149.155L149.29 20.865C149.46 20.525 149.68 20.24 149.95 20.01C150.22 19.77 150.535 19.585 150.895 19.455C151.265 19.325 151.685 19.26 152.155 19.26V20.85H151.615C151.305 20.85 151.01 20.89 150.73 20.97C150.45 21.04 150.2 21.165 149.98 21.345C149.77 21.525 149.605 21.77 149.485 22.08C149.365 22.39 149.305 22.775 149.305 23.235V27H147.805ZM156.733 27.18C156.013 27.18 155.373 27.015 154.813 26.685C154.253 26.355 153.813 25.895 153.493 25.305C153.183 24.715 153.028 24.03 153.028 23.25C153.028 22.45 153.183 21.755 153.493 21.165C153.813 20.565 154.253 20.1 154.813 19.77C155.373 19.43 156.023 19.26 156.763 19.26C157.503 19.26 158.138 19.425 158.668 19.755C159.198 20.085 159.608 20.525 159.898 21.075C160.188 21.615 160.333 22.215 160.333 22.875C160.333 22.975 160.328 23.085 160.318 23.205C160.318 23.315 160.313 23.44 160.303 23.58H154.123V22.515H158.833C158.803 21.885 158.593 21.395 158.203 21.045C157.813 20.685 157.328 20.505 156.748 20.505C156.338 20.505 155.963 20.6 155.623 20.79C155.283 20.97 155.008 21.24 154.798 21.6C154.598 21.95 154.498 22.395 154.498 22.935V23.355C154.498 23.915 154.598 24.39 154.798 24.78C155.008 25.16 155.283 25.45 155.623 25.65C155.963 25.84 156.333 25.935 156.733 25.935C157.213 25.935 157.608 25.83 157.918 25.62C158.228 25.41 158.458 25.125 158.608 24.765H160.108C159.978 25.225 159.758 25.64 159.448 26.01C159.138 26.37 158.753 26.655 158.293 26.865C157.843 27.075 157.323 27.18 156.733 27.18ZM164.504 27.18C163.884 27.18 163.369 27.075 162.959 26.865C162.549 26.655 162.244 26.375 162.044 26.025C161.844 25.665 161.744 25.28 161.744 24.87C161.744 24.37 161.874 23.945 162.134 23.595C162.394 23.235 162.764 22.96 163.244 22.77C163.724 22.58 164.299 22.485 164.969 22.485H166.934C166.934 22.045 166.869 21.68 166.739 21.39C166.609 21.1 166.414 20.885 166.154 20.745C165.904 20.595 165.584 20.52 165.194 20.52C164.744 20.52 164.359 20.63 164.039 20.85C163.719 21.06 163.519 21.375 163.439 21.795H161.939C161.999 21.265 162.179 20.815 162.479 20.445C162.789 20.065 163.184 19.775 163.664 19.575C164.144 19.365 164.654 19.26 165.194 19.26C165.904 19.26 166.499 19.385 166.979 19.635C167.459 19.885 167.819 20.24 168.059 20.7C168.309 21.15 168.434 21.69 168.434 22.32V27H167.129L167.009 25.725C166.899 25.925 166.769 26.115 166.619 26.295C166.469 26.475 166.289 26.63 166.079 26.76C165.879 26.89 165.644 26.99 165.374 27.06C165.114 27.14 164.824 27.18 164.504 27.18ZM164.789 25.965C165.109 25.965 165.399 25.9 165.659 25.77C165.919 25.64 166.139 25.465 166.319 25.245C166.509 25.015 166.649 24.76 166.739 24.48C166.839 24.19 166.894 23.895 166.904 23.595V23.55H165.119C164.689 23.55 164.339 23.605 164.069 23.715C163.809 23.815 163.619 23.955 163.499 24.135C163.379 24.315 163.319 24.525 163.319 24.765C163.319 25.015 163.374 25.23 163.484 25.41C163.604 25.58 163.774 25.715 163.994 25.815C164.214 25.915 164.479 25.965 164.789 25.965ZM173.308 27C172.828 27 172.413 26.925 172.063 26.775C171.713 26.625 171.443 26.375 171.253 26.025C171.063 25.675 170.968 25.2 170.968 24.6V20.715H169.663V19.44H170.968L171.148 17.55H172.468V19.44H174.613V20.715H172.468V24.615C172.468 25.045 172.558 25.34 172.738 25.5C172.918 25.65 173.228 25.725 173.668 25.725H174.538V27H173.308ZM176.372 27V19.44H177.872V27H176.372ZM177.137 18.015C176.847 18.015 176.607 17.925 176.417 17.745C176.237 17.565 176.147 17.335 176.147 17.055C176.147 16.785 176.237 16.565 176.417 16.395C176.607 16.215 176.847 16.125 177.137 16.125C177.417 16.125 177.652 16.215 177.842 16.395C178.032 16.565 178.127 16.785 178.127 17.055C178.127 17.335 178.032 17.565 177.842 17.745C177.652 17.925 177.417 18.015 177.137 18.015ZM182.162 27L179.327 19.44H180.902L183.047 25.56L185.207 19.44H186.752L183.932 27H182.162ZM191.157 27.18C190.437 27.18 189.797 27.015 189.237 26.685C188.677 26.355 188.237 25.895 187.917 25.305C187.607 24.715 187.452 24.03 187.452 23.25C187.452 22.45 187.607 21.755 187.917 21.165C188.237 20.565 188.677 20.1 189.237 19.77C189.797 19.43 190.447 19.26 191.187 19.26C191.927 19.26 192.562 19.425 193.092 19.755C193.622 20.085 194.032 20.525 194.322 21.075C194.612 21.615 194.757 22.215 194.757 22.875C194.757 22.975 194.752 23.085 194.742 23.205C194.742 23.315 194.737 23.44 194.727 23.58H188.547V22.515H193.257C193.227 21.885 193.017 21.395 192.627 21.045C192.237 20.685 191.752 20.505 191.172 20.505C190.762 20.505 190.387 20.6 190.047 20.79C189.707 20.97 189.432 21.24 189.222 21.6C189.022 21.95 188.922 22.395 188.922 22.935V23.355C188.922 23.915 189.022 24.39 189.222 24.78C189.432 25.16 189.707 25.45 190.047 25.65C190.387 25.84 190.757 25.935 191.157 25.935C191.637 25.935 192.032 25.83 192.342 25.62C192.652 25.41 192.882 25.125 193.032 24.765H194.532C194.402 25.225 194.182 25.64 193.872 26.01C193.562 26.37 193.177 26.655 192.717 26.865C192.267 27.075 191.747 27.18 191.157 27.18ZM197.023 27.075C196.733 27.075 196.493 26.985 196.303 26.805C196.123 26.615 196.033 26.39 196.033 26.13C196.033 25.86 196.123 25.635 196.303 25.455C196.493 25.265 196.733 25.17 197.023 25.17C197.313 25.17 197.548 25.265 197.728 25.455C197.908 25.635 197.998 25.86 197.998 26.13C197.998 26.39 197.908 26.615 197.728 26.805C197.548 26.985 197.313 27.075 197.023 27.075ZM203.141 27.18C202.411 27.18 201.761 27.015 201.191 26.685C200.621 26.345 200.171 25.88 199.841 25.29C199.521 24.7 199.361 24.015 199.361 23.235C199.361 22.445 199.521 21.755 199.841 21.165C200.171 20.565 200.621 20.1 201.191 19.77C201.761 19.43 202.411 19.26 203.141 19.26C204.061 19.26 204.831 19.5 205.451 19.98C206.071 20.46 206.466 21.11 206.636 21.93H205.076C204.976 21.49 204.746 21.15 204.386 20.91C204.036 20.67 203.616 20.55 203.126 20.55C202.726 20.55 202.356 20.655 202.016 20.865C201.676 21.065 201.401 21.365 201.191 21.765C200.991 22.155 200.891 22.64 200.891 23.22C200.891 23.65 200.951 24.035 201.071 24.375C201.191 24.705 201.351 24.985 201.551 25.215C201.761 25.445 202.001 25.62 202.271 25.74C202.541 25.85 202.826 25.905 203.126 25.905C203.456 25.905 203.751 25.855 204.011 25.755C204.281 25.645 204.506 25.485 204.686 25.275C204.876 25.065 205.006 24.815 205.076 24.525H206.636C206.466 25.325 206.071 25.97 205.451 26.46C204.831 26.94 204.061 27.18 203.141 27.18ZM211.841 27.18C211.131 27.18 210.491 27.015 209.921 26.685C209.361 26.355 208.916 25.895 208.586 25.305C208.266 24.705 208.106 24.015 208.106 23.235C208.106 22.435 208.271 21.74 208.601 21.15C208.931 20.55 209.381 20.085 209.951 19.755C210.521 19.425 211.161 19.26 211.871 19.26C212.591 19.26 213.231 19.425 213.791 19.755C214.351 20.085 214.791 20.545 215.111 21.135C215.441 21.725 215.606 22.42 215.606 23.22C215.606 24.02 215.441 24.715 215.111 25.305C214.791 25.895 214.346 26.355 213.776 26.685C213.206 27.015 212.561 27.18 211.841 27.18ZM211.841 25.89C212.251 25.89 212.621 25.79 212.951 25.59C213.291 25.39 213.561 25.095 213.761 24.705C213.971 24.305 214.076 23.81 214.076 23.22C214.076 22.63 213.976 22.14 213.776 21.75C213.576 21.35 213.306 21.05 212.966 20.85C212.636 20.65 212.271 20.55 211.871 20.55C211.471 20.55 211.101 20.65 210.761 20.85C210.421 21.05 210.146 21.35 209.936 21.75C209.736 22.14 209.636 22.63 209.636 23.22C209.636 23.81 209.736 24.305 209.936 24.705C210.146 25.095 210.416 25.39 210.746 25.59C211.086 25.79 211.451 25.89 211.841 25.89ZM217.371 27V19.44H218.721L218.826 20.505C219.066 20.115 219.386 19.81 219.786 19.59C220.186 19.37 220.636 19.26 221.136 19.26C221.516 19.26 221.861 19.315 222.171 19.425C222.481 19.525 222.756 19.68 222.996 19.89C223.236 20.1 223.431 20.36 223.581 20.67C223.851 20.23 224.211 19.885 224.661 19.635C225.121 19.385 225.606 19.26 226.116 19.26C226.726 19.26 227.251 19.385 227.691 19.635C228.131 19.875 228.466 20.24 228.696 20.73C228.926 21.21 229.041 21.81 229.041 22.53V27H227.556V22.68C227.556 21.98 227.411 21.45 227.121 21.09C226.841 20.73 226.426 20.55 225.876 20.55C225.506 20.55 225.176 20.645 224.886 20.835C224.596 21.025 224.366 21.3 224.196 21.66C224.036 22.02 223.956 22.46 223.956 22.98V27H222.456V22.68C222.456 21.98 222.311 21.45 222.021 21.09C221.741 20.73 221.326 20.55 220.776 20.55C220.426 20.55 220.106 20.645 219.816 20.835C219.526 21.025 219.296 21.3 219.126 21.66C218.956 22.02 218.871 22.46 218.871 22.98V27H217.371Z" fill="white"/>
</svg>
