<svg width="104" height="104" viewBox="0 0 104 104" fill="none" xmlns="http://www.w3.org/2000/svg">
<rect x="0.589528" y="0.589467" width="102.567" height="101.978" rx="10.3157" fill="#FF624D" stroke="black" stroke-width="1.17893"/>
<path d="M72.8832 30.6708C76.0231 25.0735 74.064 17.9643 68.5177 14.7214C63.8619 11.9994 57.9278 12.7454 54.1178 16.5555L34.6677 36.006C34.3887 36.2849 34.5868 36.7618 34.9813 36.7607L62.6457 36.6843C66.893 36.6726 70.8052 34.3751 72.8832 30.6708Z" fill="#FF624D" stroke="black" stroke-width="1.47367"/>
<path d="M28.0771 74.7982C24.9371 80.3955 26.8963 87.5047 32.4425 90.7476C37.0983 93.4696 43.0325 92.7235 46.8425 88.9135L65.7882 69.9677C66.2526 69.5028 65.9221 68.7084 65.265 68.7099L38.3146 68.7847C34.0673 68.7964 30.1551 71.0939 28.0771 74.7982Z" fill="#FF624D" stroke="black" stroke-width="1.47367"/>
<path d="M19.5397 64.2848C13.4963 62.6854 9.75593 56.6384 11.0263 50.5177C12.1587 45.0623 16.9627 41.1488 22.5343 41.1425L49.06 41.1129C49.7153 41.1122 50.0454 41.9034 49.5843 42.3687L30.9081 61.1955C27.9441 64.1835 23.6086 65.3615 19.5397 64.2848Z" fill="#FF624D" stroke="black" stroke-width="1.47367"/>
<path d="M77.5121 41.123C83.5623 42.6964 87.3287 48.7273 86.0847 54.8534C84.9757 60.3136 80.1887 64.2478 74.6171 64.2781L48.0918 64.4218C47.4365 64.4253 47.103 63.6356 47.5621 63.1683L66.157 44.2613C69.1082 41.2605 73.4386 40.0639 77.5121 41.123Z" fill="#FF624D" stroke="black" stroke-width="1.47367"/>
<path d="M80.5463 30.6708C83.6862 25.0735 81.727 17.9643 76.1808 14.7214C71.525 11.9994 65.5909 12.7454 61.7809 16.5555L42.3308 36.006C42.0518 36.2849 42.2499 36.7618 42.6444 36.7607L70.3088 36.6843C74.5561 36.6726 78.4682 34.3751 80.5463 30.6708Z" fill="#FF624D"/>
<path d="M80.5463 30.6708C83.6862 25.0735 81.727 17.9643 76.1808 14.7214C71.525 11.9994 65.5909 12.7454 61.7809 16.5555L42.3308 36.006C42.0518 36.2849 42.2499 36.7618 42.6444 36.7607L70.3088 36.6843C74.5561 36.6726 78.4682 34.3751 80.5463 30.6708Z" stroke="black" stroke-width="1.47367"/>
<path d="M35.7402 74.7982C32.6002 80.3955 34.5594 87.5047 40.1056 90.7476C44.7614 93.4696 50.6955 92.7235 54.5056 88.9135L73.4513 69.9677C73.9157 69.5028 73.5852 68.7084 72.9281 68.7099L45.9777 68.7847C41.7303 68.7964 37.8182 71.0939 35.7402 74.7982Z" fill="#FF624D"/>
<path d="M35.7402 74.7982C32.6002 80.3955 34.5594 87.5047 40.1056 90.7476C44.7614 93.4696 50.6955 92.7235 54.5056 88.9135L73.4513 69.9677C73.9157 69.5028 73.5852 68.7084 72.9281 68.7099L45.9777 68.7847C41.7303 68.7964 37.8182 71.0939 35.7402 74.7982Z" stroke="black" stroke-width="1.47367"/>
<path d="M27.2028 64.2848C21.1593 62.6854 17.419 56.6384 18.6894 50.5177C19.8218 45.0623 24.6258 41.1488 30.1974 41.1425L56.7231 41.1129C57.3783 41.1122 57.7085 41.9034 57.2473 42.3687L38.5712 61.1955C35.6072 64.1835 31.2717 65.3615 27.2028 64.2848Z" fill="#FF624D"/>
<path d="M27.2028 64.2848C21.1593 62.6854 17.419 56.6384 18.6894 50.5177C19.8218 45.0623 24.6258 41.1488 30.1974 41.1425L56.7231 41.1129C57.3783 41.1122 57.7085 41.9034 57.2473 42.3687L38.5712 61.1955C35.6072 64.1835 31.2717 65.3615 27.2028 64.2848Z" stroke="black" stroke-width="1.47367"/>
<path d="M85.1751 41.123C91.2254 42.6964 94.9917 48.7273 93.7477 54.8534C92.6387 60.3136 87.8517 64.2478 82.2802 64.2781L55.7548 64.4218C55.0996 64.4253 54.766 63.6356 55.2251 63.1683L73.8201 44.2613C76.7712 41.2605 81.1016 40.0639 85.1751 41.123Z" fill="#FF624D"/>
<path d="M85.1751 41.123C91.2254 42.6964 94.9917 48.7273 93.7477 54.8534C92.6387 60.3136 87.8517 64.2478 82.2802 64.2781L55.7548 64.4218C55.0996 64.4253 54.766 63.6356 55.2251 63.1683L73.8201 44.2613C76.7712 41.2605 81.1016 40.0639 85.1751 41.123Z" stroke="black" stroke-width="1.47367"/>
</svg>
