<svg width="104" height="104" viewBox="0 0 104 104" fill="none" xmlns="http://www.w3.org/2000/svg">
<rect width="103.746" height="103.157" rx="10.9051" fill="#FF624D"/>
<path d="M72.8831 30.6708C76.0231 25.0735 74.0639 17.9643 68.5177 14.7214C63.8619 11.9994 57.9278 12.7454 54.1177 16.5555L34.6676 36.006C34.3887 36.2849 34.5868 36.7618 34.9812 36.7607L62.6456 36.6843C66.893 36.6726 70.8051 34.3751 72.8831 30.6708Z" stroke="black" stroke-width="1.47367"/>
<path d="M28.077 74.7982C24.9371 80.3955 26.8962 87.5047 32.4425 90.7476C37.0983 93.4696 43.0324 92.7235 46.8424 88.9135L65.7881 69.9677C66.2525 69.5028 65.9221 68.7084 65.265 68.7099L38.3145 68.7847C34.0672 68.7964 30.155 71.0939 28.077 74.7982Z" stroke="black" stroke-width="1.47367"/>
<path d="M19.5396 64.2848C13.4962 62.6854 9.75587 56.6384 11.0262 50.5177C12.1587 45.0623 16.9626 41.1488 22.5342 41.1425L49.0599 41.1129C49.7152 41.1122 50.0454 41.9034 49.5842 42.3687L30.9081 61.1955C27.944 64.1835 23.6085 65.3615 19.5396 64.2848Z" stroke="black" stroke-width="1.47367"/>
<path d="M77.512 41.123C83.5623 42.6964 87.3286 48.7273 86.0846 54.8534C84.9756 60.3136 80.1886 64.2478 74.6171 64.2781L48.0917 64.4218C47.4365 64.4253 47.1029 63.6356 47.5621 63.1683L66.157 44.2613C69.1081 41.2605 73.4385 40.0639 77.512 41.123Z" stroke="black" stroke-width="1.47367"/>
<path d="M80.5462 30.6708C83.6862 25.0735 81.727 17.9643 76.1808 14.7214C71.525 11.9994 65.5908 12.7454 61.7808 16.5555L42.3307 36.006C42.0518 36.2849 42.2498 36.7618 42.6443 36.7607L70.3087 36.6843C74.556 36.6726 78.4682 34.3751 80.5462 30.6708Z" stroke="black" stroke-width="1.47367"/>
<path d="M35.7401 74.7982C32.6002 80.3955 34.5593 87.5047 40.1056 90.7476C44.7614 93.4696 50.6955 92.7235 54.5055 88.9135L73.4512 69.9677C73.9156 69.5028 73.5852 68.7084 72.9281 68.7099L45.9776 68.7847C41.7303 68.7964 37.8181 71.0939 35.7401 74.7982Z" stroke="black" stroke-width="1.47367"/>
<path d="M27.2027 64.2848C21.1593 62.6854 17.419 56.6384 18.6893 50.5177C19.8218 45.0623 24.6257 41.1488 30.1973 41.1425L56.723 41.1129C57.3783 41.1122 57.7085 41.9034 57.2473 42.3687L38.5712 61.1955C35.6071 64.1835 31.2716 65.3615 27.2027 64.2848Z" stroke="black" stroke-width="1.47367"/>
<path d="M85.175 41.123C91.2253 42.6964 94.9916 48.7273 93.7476 54.8534C92.6387 60.3136 87.8516 64.2478 82.2801 64.2781L55.7547 64.4218C55.0995 64.4253 54.7659 63.6356 55.2251 63.1683L73.82 44.2613C76.7712 41.2605 81.1015 40.0639 85.175 41.123Z" stroke="black" stroke-width="1.47367"/>
</svg>
